<svg xmlns="http://www.w3.org/2000/svg" viewBox="0 0 200 200">
<defs><linearGradient id="sky10" x1="0" y1="0" x2="0" y2="1"><stop offset="0" stop-color="#05070f"/><stop offset="1" stop-color="#111c34"/></linearGradient></defs>
<rect x="0" y="0" width="200" height="170" fill="url(#sky10)"/>
<path d="M170,26 a12,12 0 1 0 0.5,0.02 a9,9 0 1 1 -0.5,-0.02Z" fill="#e9edf5" opacity=".8"/>
<circle cx="20" cy="20" r="1" fill="#ffffff" opacity="0.4"/><circle cx="50" cy="12" r="1.4" fill="#ffffff" opacity="0.9"/><circle cx="90" cy="26" r="1.8" fill="#ffffff" opacity="0.8"/><circle cx="130" cy="16" r="1" fill="#ffffff" opacity="0.7000000000000001"/><circle cx="170" cy="30" r="1.4" fill="#ffffff" opacity="0.6000000000000001"/><circle cx="35" cy="40" r="1.8" fill="#ffffff" opacity="0.5"/><circle cx="150" cy="44" r="1" fill="#ffffff" opacity="0.4"/><circle cx="10" cy="55" r="1.4" fill="#ffffff" opacity="0.9"/>
<rect x="0" y="170" width="200" height="30" fill="#070b14"/>
<rect x="0" y="168" width="200" height="4" fill="#4b7bff" opacity=".25"/>
<rect x="18" y="90" width="34" height="80" fill="#101a2e"/>
<rect x="150" y="76" width="36" height="94" fill="#101a2e"/>
<rect x="80" y="26" width="46" height="144" fill="#182640" stroke="#f3c943" stroke-width="1.6"/>
<rect x="84" y="28" width="6" height="7" fill="#0e1626" opacity="1"/><rect x="95" y="28" width="6" height="7" fill="#f3c943" opacity="0.9"/><rect x="106" y="28" width="6" height="7" fill="#f3c943" opacity="0.9"/><rect x="117" y="28" width="6" height="7" fill="#0e1626" opacity="1"/><rect x="84" y="41" width="6" height="7" fill="#f3c943" opacity="0.9"/><rect x="95" y="41" width="6" height="7" fill="#0e1626" opacity="1"/><rect x="106" y="41" width="6" height="7" fill="#f3c943" opacity="0.9"/><rect x="117" y="41" width="6" height="7" fill="#f3c943" opacity="0.9"/><rect x="84" y="54" width="6" height="7" fill="#f3c943" opacity="0.9"/><rect x="95" y="54" width="6" height="7" fill="#f3c943" opacity="0.9"/><rect x="106" y="54" width="6" height="7" fill="#0e1626" opacity="1"/><rect x="117" y="54" width="6" height="7" fill="#0bf39b" opacity="0.9"/><rect x="84" y="67" width="6" height="7" fill="#0e1626" opacity="1"/><rect x="95" y="67" width="6" height="7" fill="#0bf39b" opacity="0.9"/><rect x="106" y="67" width="6" height="7" fill="#f3c943" opacity="0.9"/><rect x="117" y="67" width="6" height="7" fill="#0e1626" opacity="1"/><rect x="84" y="80" width="6" height="7" fill="#f3c943" opacity="0.9"/><rect x="95" y="80" width="6" height="7" fill="#0e1626" opacity="1"/><rect x="106" y="80" width="6" height="7" fill="#0e1626" opacity="1"/><rect x="117" y="80" width="6" height="7" fill="#f3c943" opacity="0.9"/><rect x="84" y="93" width="6" height="7" fill="#0e1626" opacity="1"/><rect x="95" y="93" width="6" height="7" fill="#f3c943" opacity="0.9"/><rect x="106" y="93" width="6" height="7" fill="#f3c943" opacity="0.9"/><rect x="117" y="93" width="6" height="7" fill="#0e1626" opacity="1"/><rect x="84" y="106" width="6" height="7" fill="#f3c943" opacity="0.9"/><rect x="95" y="106" width="6" height="7" fill="#0e1626" opacity="1"/><rect x="106" y="106" width="6" height="7" fill="#f3c943" opacity="0.9"/><rect x="117" y="106" width="6" height="7" fill="#f3c943" opacity="0.9"/><rect x="84" y="119" width="6" height="7" fill="#f3c943" opacity="0.9"/><rect x="95" y="119" width="6" height="7" fill="#f3c943" opacity="0.9"/><rect x="106" y="119" width="6" height="7" fill="#0e1626" opacity="1"/><rect x="117" y="119" width="6" height="7" fill="#0bf39b" opacity="0.9"/><rect x="84" y="132" width="6" height="7" fill="#0e1626" opacity="1"/><rect x="95" y="132" width="6" height="7" fill="#0bf39b" opacity="0.9"/><rect x="106" y="132" width="6" height="7" fill="#f3c943" opacity="0.9"/><rect x="117" y="132" width="6" height="7" fill="#0e1626" opacity="1"/>
<rect x="99" y="10" width="4" height="18" fill="#182640"/>
<circle cx="101" cy="9" r="2.6" fill="#e86666"/>
</svg>